<svg xmlns="http://www.w3.org/2000/svg" xmlns:xlink="http://www.w3.org/1999/xlink" width="1920" zoomAndPan="magnify" viewBox="0 0 1440 809.999993" height="1080" preserveAspectRatio="xMidYMid meet" version="1.0"><defs><g/><clipPath id="id1"><path d="M 81 81 L 386.25 81 L 386.25 183 L 81 183 Z M 81 81 " clip-rule="nonzero"/></clipPath><clipPath id="id2"><path d="M 442.285156 219.023438 L 701.035156 219.023438 L 701.035156 310.523438 L 442.285156 310.523438 Z M 442.285156 219.023438 " clip-rule="nonzero"/></clipPath><clipPath id="id3"><path d="M 807.167969 233.085938 L 993.917969 233.085938 L 993.917969 310.335938 L 807.167969 310.335938 Z M 807.167969 233.085938 " clip-rule="nonzero"/></clipPath><clipPath id="id4"><path d="M 442.285156 343.722656 L 701.035156 343.722656 L 701.035156 435.222656 L 442.285156 435.222656 Z M 442.285156 343.722656 " clip-rule="nonzero"/></clipPath><clipPath id="id5"><path d="M 724.511719 448.953125 L 911.261719 448.953125 L 911.261719 526.203125 L 724.511719 526.203125 Z M 724.511719 448.953125 " clip-rule="nonzero"/></clipPath><clipPath id="id6"><path d="M 722.636719 539.925781 L 909.386719 539.925781 L 909.386719 617.175781 L 722.636719 617.175781 Z M 722.636719 539.925781 " clip-rule="nonzero"/></clipPath><clipPath id="id7"><path d="M 721.875 630.894531 L 908.625 630.894531 L 908.625 708.144531 L 721.875 708.144531 Z M 721.875 630.894531 " clip-rule="nonzero"/></clipPath><clipPath id="id8"><path d="M 1017.167969 389.488281 L 1149.167969 389.488281 L 1149.167969 449.488281 L 1017.167969 449.488281 Z M 1017.167969 389.488281 " clip-rule="nonzero"/></clipPath><clipPath id="id9"><path d="M 1017.167969 522.332031 L 1149.167969 522.332031 L 1149.167969 582.332031 L 1017.167969 582.332031 Z M 1017.167969 522.332031 " clip-rule="nonzero"/></clipPath></defs><rect x="-144" width="1728" fill="#ffffff" y="-80.999999" height="971.999992" fill-opacity="1"/><rect x="-144" width="1728" fill="#ffffff" y="-80.999999" height="971.999992" fill-opacity="1"/><rect x="-144" width="1728" fill="#ffffff" y="-80.999999" height="971.999992" fill-opacity="1"/><rect x="-144" width="1728" fill="#ffffff" y="-80.999999" height="971.999992" fill-opacity="1"/><g clip-path="url(#id1)"><path fill="#d9d9d9" d="M 81.003906 81 L 386.246094 81 L 386.246094 183 L 81.003906 183 L 81.003906 81 " fill-opacity="1" fill-rule="nonzero"/></g><path stroke-linecap="butt" transform="matrix(0.00000000000000023, 3.756281, -3.75, 0.00000000000000023, 231.867621, 182.828214)" fill="none" stroke-linejoin="miter" d="M -0.0000236942 0.000115589 L 54.109353 0.000115589 " stroke="#000000" stroke-width="1" stroke-opacity="1" stroke-miterlimit="4"/><path stroke-linecap="butt" transform="matrix(3.744596, 0, 0, 3.75, 229.993031, 269.945046)" fill="none" stroke-linejoin="miter" d="M -0.000225379 0.0000709548 L 62.892488 0.0000709548 " stroke="#000000" stroke-width="1" stroke-opacity="1" stroke-miterlimit="4"/><path stroke-linecap="butt" transform="matrix(3.744509, 0, 0, 3.75, 229.993031, 387.613769)" fill="none" stroke-linejoin="miter" d="M -0.000225384 -0.000130147 L 61.89249 -0.000130147 " stroke="#000000" stroke-width="1" stroke-opacity="1" stroke-miterlimit="4"/><g clip-path="url(#id2)"><path fill="#d9d9d9" d="M 442.296875 219.023438 L 701.023438 219.023438 L 701.023438 310.523438 L 442.296875 310.523438 L 442.296875 219.023438 " fill-opacity="1" fill-rule="nonzero"/></g><g clip-path="url(#id3)"><path fill="#d9d9d9" d="M 807.175781 233.085938 L 993.910156 233.085938 L 993.910156 310.335938 L 807.175781 310.335938 L 807.175781 233.085938 " fill-opacity="1" fill-rule="nonzero"/></g><g fill="#000000" fill-opacity="1"><g transform="translate(514.731604, 285.320031)"><g><path d="M 29.6875 0 L 23.046875 0 L 23.046875 -13.5625 L 10.609375 -13.5625 L 10.609375 0 L 3.953125 0 L 3.953125 -31.40625 L 10.609375 -31.40625 L 10.609375 -19.09375 L 23.046875 -19.09375 L 23.046875 -31.40625 L 29.6875 -31.40625 Z M 29.6875 0 "/></g></g></g><g fill="#000000" fill-opacity="1"><g transform="translate(548.39164, 285.320031)"><g><path d="M 13.390625 -19.8125 C 11.992188 -19.8125 10.898438 -19.367188 10.109375 -18.484375 C 9.328125 -17.609375 8.878906 -16.359375 8.765625 -14.734375 L 17.96875 -14.734375 C 17.9375 -16.359375 17.507812 -17.609375 16.6875 -18.484375 C 15.875 -19.367188 14.773438 -19.8125 13.390625 -19.8125 Z M 14.3125 0.4375 C 10.445312 0.4375 7.425781 -0.628906 5.25 -2.765625 C 3.070312 -4.898438 1.984375 -7.925781 1.984375 -11.84375 C 1.984375 -15.863281 2.988281 -18.972656 5 -21.171875 C 7.007812 -23.367188 9.789062 -24.46875 13.34375 -24.46875 C 16.738281 -24.46875 19.378906 -23.5 21.265625 -21.5625 C 23.160156 -19.632812 24.109375 -16.96875 24.109375 -13.5625 L 24.109375 -10.375 L 8.609375 -10.375 C 8.679688 -8.507812 9.234375 -7.054688 10.265625 -6.015625 C 11.296875 -4.972656 12.742188 -4.453125 14.609375 -4.453125 C 16.054688 -4.453125 17.421875 -4.597656 18.703125 -4.890625 C 19.992188 -5.191406 21.34375 -5.675781 22.75 -6.34375 L 22.75 -1.265625 C 21.601562 -0.691406 20.378906 -0.265625 19.078125 0.015625 C 17.773438 0.296875 16.1875 0.4375 14.3125 0.4375 Z M 14.3125 0.4375 "/></g></g></g><g fill="#000000" fill-opacity="1"><g transform="translate(574.383117, 285.320031)"><g><path d="M 18.6875 0 L 17.421875 -3.265625 L 17.25 -3.265625 C 16.144531 -1.878906 15.007812 -0.914062 13.84375 -0.375 C 12.675781 0.164062 11.15625 0.4375 9.28125 0.4375 C 6.976562 0.4375 5.160156 -0.222656 3.828125 -1.546875 C 2.503906 -2.867188 1.84375 -4.742188 1.84375 -7.171875 C 1.84375 -9.722656 2.734375 -11.601562 4.515625 -12.8125 C 6.304688 -14.019531 9 -14.691406 12.59375 -14.828125 L 16.765625 -14.953125 L 16.765625 -16 C 16.765625 -18.4375 15.515625 -19.65625 13.015625 -19.65625 C 11.097656 -19.65625 8.84375 -19.078125 6.25 -17.921875 L 4.078125 -22.34375 C 6.847656 -23.789062 9.914062 -24.515625 13.28125 -24.515625 C 16.5 -24.515625 18.96875 -23.8125 20.6875 -22.40625 C 22.40625 -21 23.265625 -18.863281 23.265625 -16 L 23.265625 0 Z M 16.765625 -11.125 L 14.21875 -11.046875 C 12.3125 -10.984375 10.894531 -10.632812 9.96875 -10 C 9.039062 -9.375 8.578125 -8.421875 8.578125 -7.140625 C 8.578125 -5.285156 9.632812 -4.359375 11.75 -4.359375 C 13.269531 -4.359375 14.484375 -4.796875 15.390625 -5.671875 C 16.304688 -6.546875 16.765625 -7.707031 16.765625 -9.15625 Z M 16.765625 -11.125 "/></g></g></g><g fill="#000000" fill-opacity="1"><g transform="translate(600.954568, 285.320031)"><g><path d="M 11.046875 0.4375 C 8.222656 0.4375 6.003906 -0.65625 4.390625 -2.84375 C 2.785156 -5.039062 1.984375 -8.082031 1.984375 -11.96875 C 1.984375 -15.90625 2.800781 -18.972656 4.4375 -21.171875 C 6.070312 -23.367188 8.332031 -24.46875 11.21875 -24.46875 C 14.238281 -24.46875 16.546875 -23.296875 18.140625 -20.953125 L 18.34375 -20.953125 C 18.019531 -22.742188 17.859375 -24.335938 17.859375 -25.734375 L 17.859375 -33.4375 L 24.421875 -33.4375 L 24.421875 0 L 19.40625 0 L 18.140625 -3.109375 L 17.859375 -3.109375 C 16.367188 -0.742188 14.097656 0.4375 11.046875 0.4375 Z M 13.34375 -4.796875 C 15.019531 -4.796875 16.25 -5.28125 17.03125 -6.25 C 17.8125 -7.226562 18.238281 -8.882812 18.3125 -11.21875 L 18.3125 -11.921875 C 18.3125 -14.503906 17.910156 -16.351562 17.109375 -17.46875 C 16.316406 -18.582031 15.023438 -19.140625 13.234375 -19.140625 C 11.773438 -19.140625 10.640625 -18.519531 9.828125 -17.28125 C 9.015625 -16.039062 8.609375 -14.238281 8.609375 -11.875 C 8.609375 -9.519531 9.015625 -7.75 9.828125 -6.5625 C 10.648438 -5.382812 11.820312 -4.796875 13.34375 -4.796875 Z M 13.34375 -4.796875 "/></g></g></g><g clip-path="url(#id4)"><path fill="#d9d9d9" d="M 442.296875 343.722656 L 701.023438 343.722656 L 701.023438 435.222656 L 442.296875 435.222656 L 442.296875 343.722656 " fill-opacity="1" fill-rule="nonzero"/></g><path stroke-linecap="butt" transform="matrix(3.745598, 0.0705993, -0.0706697, 3.749334, 701.285011, 273.694811)" fill="none" stroke-linejoin="miter" d="M 0.0000413033 0.000132971 L 28.231092 -0.000108257 " stroke="#000000" stroke-width="1" stroke-opacity="1" stroke-miterlimit="4"/><path stroke-linecap="butt" transform="matrix(0.0422331, -3.755575, 3.749763, 0.0421678, 567.255506, 669.62893)" fill="none" stroke-linejoin="miter" d="M 0.00000161753 -0.000426561 L 62.503958 -0.000189603 " stroke="#000000" stroke-width="1" stroke-opacity="1" stroke-miterlimit="4"/><path stroke-linecap="butt" transform="matrix(3.747157, 0, 0, 3.75, 569.892578, 487.688371)" fill="none" stroke-linejoin="miter" d="M -0.000521075 -0.000232391 L 41.231777 -0.000232391 " stroke="#000000" stroke-width="1" stroke-opacity="1" stroke-miterlimit="4"/><g clip-path="url(#id5)"><path fill="#d9d9d9" d="M 724.515625 448.953125 L 911.253906 448.953125 L 911.253906 526.203125 L 724.515625 526.203125 L 724.515625 448.953125 " fill-opacity="1" fill-rule="nonzero"/></g><path stroke-linecap="butt" transform="matrix(3.747157, 0, 0, 3.75, 568.017578, 578.659383)" fill="none" stroke-linejoin="miter" d="M -0.000521101 0.00020623 L 41.231777 0.00020623 " stroke="#000000" stroke-width="1" stroke-opacity="1" stroke-miterlimit="4"/><g clip-path="url(#id6)"><path fill="#d9d9d9" d="M 722.640625 539.925781 L 909.378906 539.925781 L 909.378906 617.175781 L 722.640625 617.175781 L 722.640625 539.925781 " fill-opacity="1" fill-rule="nonzero"/></g><path stroke-linecap="butt" transform="matrix(3.747157, 0, 0, 3.75, 567.25697, 669.630394)" fill="none" stroke-linejoin="miter" d="M 0.000224921 -0.000396817 L 41.23148 -0.000396817 " stroke="#000000" stroke-width="1" stroke-opacity="1" stroke-miterlimit="4"/><g clip-path="url(#id7)"><path fill="#d9d9d9" d="M 721.882812 630.894531 L 908.617188 630.894531 L 908.617188 708.144531 L 721.882812 708.144531 L 721.882812 630.894531 " fill-opacity="1" fill-rule="nonzero"/></g><g fill="#000000" fill-opacity="1"><g transform="translate(780.268204, 501.563371)"><g><path d="M 26.03125 0 L 19.109375 0 L 7.921875 -19.4375 L 7.765625 -19.4375 C 7.992188 -16.007812 8.109375 -13.5625 8.109375 -12.09375 L 8.109375 0 L 3.234375 0 L 3.234375 -25.703125 L 10.109375 -25.703125 L 21.265625 -6.453125 L 21.390625 -6.453125 C 21.210938 -9.796875 21.125 -12.15625 21.125 -13.53125 L 21.125 -25.703125 L 26.03125 -25.703125 Z M 26.03125 0 "/></g></g></g><g fill="#000000" fill-opacity="1"><g transform="translate(809.526259, 501.563371)"><g><path d="M 15.296875 0 L 14.25 -2.671875 L 14.109375 -2.671875 C 13.210938 -1.535156 12.285156 -0.742188 11.328125 -0.296875 C 10.367188 0.140625 9.125 0.359375 7.59375 0.359375 C 5.707031 0.359375 4.222656 -0.179688 3.140625 -1.265625 C 2.054688 -2.347656 1.515625 -3.882812 1.515625 -5.875 C 1.515625 -7.957031 2.242188 -9.492188 3.703125 -10.484375 C 5.160156 -11.472656 7.359375 -12.019531 10.296875 -12.125 L 13.71875 -12.234375 L 13.71875 -13.09375 C 13.71875 -15.082031 12.695312 -16.078125 10.65625 -16.078125 C 9.082031 -16.078125 7.234375 -15.601562 5.109375 -14.65625 L 3.34375 -18.28125 C 5.601562 -19.46875 8.109375 -20.0625 10.859375 -20.0625 C 13.492188 -20.0625 15.515625 -19.484375 16.921875 -18.328125 C 18.328125 -17.179688 19.03125 -15.4375 19.03125 -13.09375 L 19.03125 0 Z M 13.71875 -9.109375 L 11.640625 -9.03125 C 10.078125 -8.988281 8.914062 -8.707031 8.15625 -8.1875 C 7.394531 -7.675781 7.015625 -6.894531 7.015625 -5.84375 C 7.015625 -4.320312 7.878906 -3.5625 9.609375 -3.5625 C 10.859375 -3.5625 11.851562 -3.921875 12.59375 -4.640625 C 13.34375 -5.359375 13.71875 -6.304688 13.71875 -7.484375 Z M 13.71875 -9.109375 "/></g></g></g><g fill="#000000" fill-opacity="1"><g transform="translate(831.263327, 501.563371)"><g><path d="M 7.484375 0 L 0 -19.65625 L 5.609375 -19.65625 L 9.40625 -8.453125 C 9.820312 -7.035156 10.085938 -5.695312 10.203125 -4.4375 L 10.296875 -4.4375 C 10.359375 -5.5625 10.625 -6.898438 11.09375 -8.453125 L 14.875 -19.65625 L 20.484375 -19.65625 L 12.984375 0 Z M 7.484375 0 "/></g></g></g><path stroke-linecap="butt" transform="matrix(3.759878, 0, 0, 3.75, 909.384752, 491.438371)" fill="none" stroke-linejoin="miter" d="M -0.000515967 -0.00023234 L 22.542187 -0.00023234 " stroke="#000000" stroke-width="1" stroke-opacity="1" stroke-miterlimit="4"/><g fill="#000000" fill-opacity="1"><g transform="translate(110.519532, 149.53891)"><g><path d="M 31.375 -16.734375 C 31.375 -11.328125 29.832031 -7.1875 26.75 -4.3125 C 23.675781 -1.4375 19.238281 0 13.4375 0 L 4.140625 0 L 4.140625 -32.84375 L 14.4375 -32.84375 C 19.800781 -32.84375 23.960938 -31.425781 26.921875 -28.59375 C 29.890625 -25.757812 31.375 -21.804688 31.375 -16.734375 Z M 24.140625 -16.546875 C 24.140625 -23.609375 21.023438 -27.140625 14.796875 -27.140625 L 11.09375 -27.140625 L 11.09375 -5.75 L 14.078125 -5.75 C 20.785156 -5.75 24.140625 -9.347656 24.140625 -16.546875 Z M 24.140625 -16.546875 "/></g></g></g><g fill="#000000" fill-opacity="1"><g transform="translate(144.56742, 149.53891)"><g><path d="M 9.046875 -12.59375 C 9.046875 -10.113281 9.453125 -8.234375 10.265625 -6.953125 C 11.085938 -5.679688 12.421875 -5.046875 14.265625 -5.046875 C 16.085938 -5.046875 17.398438 -5.675781 18.203125 -6.9375 C 19.003906 -8.207031 19.40625 -10.09375 19.40625 -12.59375 C 19.40625 -15.082031 19 -16.945312 18.1875 -18.1875 C 17.382812 -19.4375 16.0625 -20.0625 14.21875 -20.0625 C 12.394531 -20.0625 11.078125 -19.441406 10.265625 -18.203125 C 9.453125 -16.972656 9.046875 -15.101562 9.046875 -12.59375 Z M 26.421875 -12.59375 C 26.421875 -8.507812 25.34375 -5.3125 23.1875 -3 C 21.03125 -0.695312 18.023438 0.453125 14.171875 0.453125 C 11.765625 0.453125 9.640625 -0.0703125 7.796875 -1.125 C 5.953125 -2.1875 4.535156 -3.703125 3.546875 -5.671875 C 2.554688 -7.648438 2.0625 -9.957031 2.0625 -12.59375 C 2.0625 -16.695312 3.128906 -19.882812 5.265625 -22.15625 C 7.410156 -24.4375 10.425781 -25.578125 14.3125 -25.578125 C 16.71875 -25.578125 18.84375 -25.050781 20.6875 -24 C 22.53125 -22.957031 23.945312 -21.453125 24.9375 -19.484375 C 25.925781 -17.523438 26.421875 -15.226562 26.421875 -12.59375 Z M 26.421875 -12.59375 "/></g></g></g><g fill="#000000" fill-opacity="1"><g transform="translate(173.045469, 149.53891)"><g><path d="M 13.796875 0.453125 C 5.972656 0.453125 2.0625 -3.835938 2.0625 -12.421875 C 2.0625 -16.691406 3.125 -19.953125 5.25 -22.203125 C 7.382812 -24.453125 10.429688 -25.578125 14.390625 -25.578125 C 17.296875 -25.578125 19.90625 -25.007812 22.21875 -23.875 L 20.1875 -18.578125 C 19.113281 -19.015625 18.113281 -19.367188 17.1875 -19.640625 C 16.257812 -19.921875 15.328125 -20.0625 14.390625 -20.0625 C 10.828125 -20.0625 9.046875 -17.53125 9.046875 -12.46875 C 9.046875 -7.550781 10.828125 -5.09375 14.390625 -5.09375 C 15.710938 -5.09375 16.9375 -5.269531 18.0625 -5.625 C 19.1875 -5.976562 20.304688 -6.53125 21.421875 -7.28125 L 21.421875 -1.421875 C 20.316406 -0.710938 19.195312 -0.222656 18.0625 0.046875 C 16.9375 0.316406 15.515625 0.453125 13.796875 0.453125 Z M 13.796875 0.453125 "/></g></g></g><g fill="#000000" fill-opacity="1"><g transform="translate(196.694832, 149.53891)"><g><path d="M 21.390625 0 L 20.46875 -3.21875 L 20.109375 -3.21875 C 19.367188 -2.039062 18.320312 -1.132812 16.96875 -0.5 C 15.625 0.132812 14.09375 0.453125 12.375 0.453125 C 9.425781 0.453125 7.203125 -0.335938 5.703125 -1.921875 C 4.203125 -3.503906 3.453125 -5.773438 3.453125 -8.734375 L 3.453125 -25.109375 L 10.3125 -25.109375 L 10.3125 -10.4375 C 10.3125 -8.632812 10.628906 -7.28125 11.265625 -6.375 C 11.910156 -5.46875 12.941406 -5.015625 14.359375 -5.015625 C 16.273438 -5.015625 17.65625 -5.648438 18.5 -6.921875 C 19.351562 -8.203125 19.78125 -10.328125 19.78125 -13.296875 L 19.78125 -25.109375 L 26.640625 -25.109375 L 26.640625 0 Z M 21.390625 0 "/></g></g></g><g fill="#000000" fill-opacity="1"><g transform="translate(226.924685, 149.53891)"><g><path d="M 26.078125 0 L 19.234375 0 L 19.234375 -14.671875 C 19.234375 -16.484375 18.925781 -17.84375 18.3125 -18.75 C 17.707031 -19.65625 16.753906 -20.109375 15.453125 -20.109375 C 13.703125 -20.109375 12.425781 -19.460938 11.625 -18.171875 C 10.832031 -16.878906 10.4375 -14.757812 10.4375 -11.8125 L 10.4375 0 L 3.59375 0 L 3.59375 -25.109375 L 8.828125 -25.109375 L 9.75 -21.90625 L 10.125 -21.90625 C 10.800781 -23.050781 11.773438 -23.945312 13.046875 -24.59375 C 14.316406 -25.25 15.78125 -25.578125 17.4375 -25.578125 C 21.1875 -25.578125 23.726562 -24.351562 25.0625 -21.90625 L 25.671875 -21.90625 C 26.347656 -23.070312 27.335938 -23.972656 28.640625 -24.609375 C 29.953125 -25.253906 31.429688 -25.578125 33.078125 -25.578125 C 35.929688 -25.578125 38.085938 -24.847656 39.546875 -23.390625 C 41.003906 -21.929688 41.734375 -19.59375 41.734375 -16.375 L 41.734375 0 L 34.859375 0 L 34.859375 -14.671875 C 34.859375 -16.484375 34.554688 -17.84375 33.953125 -18.75 C 33.347656 -19.65625 32.394531 -20.109375 31.09375 -20.109375 C 29.414062 -20.109375 28.160156 -19.507812 27.328125 -18.3125 C 26.492188 -17.113281 26.078125 -15.207031 26.078125 -12.59375 Z M 26.078125 0 "/></g></g></g><g fill="#000000" fill-opacity="1"><g transform="translate(272.089799, 149.53891)"><g><path d="M 14 -20.703125 C 12.539062 -20.703125 11.398438 -20.242188 10.578125 -19.328125 C 9.753906 -18.410156 9.285156 -17.101562 9.171875 -15.40625 L 18.78125 -15.40625 C 18.75 -17.101562 18.304688 -18.410156 17.453125 -19.328125 C 16.597656 -20.242188 15.445312 -20.703125 14 -20.703125 Z M 14.953125 0.453125 C 10.910156 0.453125 7.75 -0.660156 5.46875 -2.890625 C 3.195312 -5.128906 2.0625 -8.289062 2.0625 -12.375 C 2.0625 -16.582031 3.113281 -19.832031 5.21875 -22.125 C 7.320312 -24.425781 10.234375 -25.578125 13.953125 -25.578125 C 17.492188 -25.578125 20.253906 -24.566406 22.234375 -22.546875 C 24.210938 -20.523438 25.203125 -17.734375 25.203125 -14.171875 L 25.203125 -10.84375 L 9 -10.84375 C 9.082031 -8.894531 9.660156 -7.375 10.734375 -6.28125 C 11.816406 -5.195312 13.332031 -4.65625 15.28125 -4.65625 C 16.789062 -4.65625 18.21875 -4.8125 19.5625 -5.125 C 20.90625 -5.4375 22.3125 -5.9375 23.78125 -6.625 L 23.78125 -1.328125 C 22.582031 -0.722656 21.300781 -0.273438 19.9375 0.015625 C 18.582031 0.304688 16.921875 0.453125 14.953125 0.453125 Z M 14.953125 0.453125 "/></g></g></g><g fill="#000000" fill-opacity="1"><g transform="translate(299.265224, 149.53891)"><g><path d="M 26.78125 0 L 19.921875 0 L 19.921875 -14.671875 C 19.921875 -16.484375 19.597656 -17.84375 18.953125 -18.75 C 18.304688 -19.65625 17.28125 -20.109375 15.875 -20.109375 C 13.957031 -20.109375 12.570312 -19.46875 11.71875 -18.1875 C 10.863281 -16.90625 10.4375 -14.78125 10.4375 -11.8125 L 10.4375 0 L 3.59375 0 L 3.59375 -25.109375 L 8.828125 -25.109375 L 9.75 -21.90625 L 10.125 -21.90625 C 10.894531 -23.113281 11.945312 -24.023438 13.28125 -24.640625 C 14.625 -25.265625 16.148438 -25.578125 17.859375 -25.578125 C 20.773438 -25.578125 22.988281 -24.785156 24.5 -23.203125 C 26.019531 -21.628906 26.78125 -19.351562 26.78125 -16.375 Z M 26.78125 0 "/></g></g></g><g fill="#000000" fill-opacity="1"><g transform="translate(329.495077, 149.53891)"><g><path d="M 14.171875 -5.015625 C 15.367188 -5.015625 16.804688 -5.273438 18.484375 -5.796875 L 18.484375 -0.703125 C 16.773438 0.0664062 14.679688 0.453125 12.203125 0.453125 C 9.460938 0.453125 7.460938 -0.238281 6.203125 -1.625 C 4.953125 -3.007812 4.328125 -5.085938 4.328125 -7.859375 L 4.328125 -19.96875 L 1.0625 -19.96875 L 1.0625 -22.859375 L 4.828125 -25.15625 L 6.8125 -30.453125 L 11.1875 -30.453125 L 11.1875 -25.109375 L 18.21875 -25.109375 L 18.21875 -19.96875 L 11.1875 -19.96875 L 11.1875 -7.859375 C 11.1875 -6.890625 11.457031 -6.171875 12 -5.703125 C 12.550781 -5.242188 13.273438 -5.015625 14.171875 -5.015625 Z M 14.171875 -5.015625 "/></g></g></g><g fill="#000000" fill-opacity="1"><g transform="translate(860.686951, 285.120063)"><g><path d="M 13.15625 0 L 7.703125 0 L 7.703125 -21.171875 L 0.71875 -21.171875 L 0.71875 -25.703125 L 20.125 -25.703125 L 20.125 -21.171875 L 13.15625 -21.171875 Z M 13.15625 0 "/></g></g></g><g fill="#000000" fill-opacity="1"><g transform="translate(881.52782, 285.120063)"><g><path d="M 2.578125 -24.734375 C 2.578125 -26.484375 3.550781 -27.359375 5.5 -27.359375 C 7.445312 -27.359375 8.421875 -26.484375 8.421875 -24.734375 C 8.421875 -23.898438 8.175781 -23.25 7.6875 -22.78125 C 7.207031 -22.320312 6.476562 -22.09375 5.5 -22.09375 C 3.550781 -22.09375 2.578125 -22.972656 2.578125 -24.734375 Z M 8.171875 0 L 2.8125 0 L 2.8125 -19.65625 L 8.171875 -19.65625 Z M 8.171875 0 "/></g></g></g><g fill="#000000" fill-opacity="1"><g transform="translate(892.510577, 285.120063)"><g><path d="M 11.09375 -3.921875 C 12.03125 -3.921875 13.15625 -4.125 14.46875 -4.53125 L 14.46875 -0.546875 C 13.132812 0.0546875 11.492188 0.359375 9.546875 0.359375 C 7.398438 0.359375 5.835938 -0.179688 4.859375 -1.265625 C 3.878906 -2.359375 3.390625 -3.988281 3.390625 -6.15625 L 3.390625 -15.625 L 0.828125 -15.625 L 0.828125 -17.890625 L 3.78125 -19.6875 L 5.328125 -23.84375 L 8.75 -23.84375 L 8.75 -19.65625 L 14.25 -19.65625 L 14.25 -15.625 L 8.75 -15.625 L 8.75 -6.15625 C 8.75 -5.394531 8.960938 -4.832031 9.390625 -4.46875 C 9.816406 -4.101562 10.382812 -3.921875 11.09375 -3.921875 Z M 11.09375 -3.921875 "/></g></g></g><g fill="#000000" fill-opacity="1"><g transform="translate(908.132449, 285.120063)"><g><path d="M 8.171875 0 L 2.8125 0 L 2.8125 -27.359375 L 8.171875 -27.359375 Z M 8.171875 0 "/></g></g></g><g fill="#000000" fill-opacity="1"><g transform="translate(919.115206, 285.120063)"><g><path d="M 10.953125 -16.203125 C 9.816406 -16.203125 8.925781 -15.84375 8.28125 -15.125 C 7.632812 -14.40625 7.265625 -13.382812 7.171875 -12.0625 L 14.703125 -12.0625 C 14.671875 -13.382812 14.320312 -14.40625 13.65625 -15.125 C 12.988281 -15.84375 12.085938 -16.203125 10.953125 -16.203125 Z M 11.703125 0.359375 C 8.546875 0.359375 6.078125 -0.515625 4.296875 -2.265625 C 2.515625 -4.015625 1.625 -6.488281 1.625 -9.6875 C 1.625 -12.976562 2.445312 -15.519531 4.09375 -17.3125 C 5.738281 -19.113281 8.015625 -20.015625 10.921875 -20.015625 C 13.691406 -20.015625 15.847656 -19.222656 17.390625 -17.640625 C 18.941406 -16.066406 19.71875 -13.882812 19.71875 -11.09375 L 19.71875 -8.484375 L 7.046875 -8.484375 C 7.109375 -6.960938 7.5625 -5.773438 8.40625 -4.921875 C 9.25 -4.066406 10.429688 -3.640625 11.953125 -3.640625 C 13.140625 -3.640625 14.257812 -3.757812 15.3125 -4 C 16.363281 -4.25 17.460938 -4.644531 18.609375 -5.1875 L 18.609375 -1.03125 C 17.671875 -0.5625 16.671875 -0.210938 15.609375 0.015625 C 14.546875 0.242188 13.242188 0.359375 11.703125 0.359375 Z M 11.703125 0.359375 "/></g></g></g><g fill="#000000" fill-opacity="1"><g transform="translate(771.151017, 592.534382)"><g><path d="M 3.234375 -25.703125 L 11.234375 -25.703125 C 14.878906 -25.703125 17.523438 -25.179688 19.171875 -24.140625 C 20.816406 -23.109375 21.640625 -21.460938 21.640625 -19.203125 C 21.640625 -17.660156 21.28125 -16.394531 20.5625 -15.40625 C 19.84375 -14.425781 18.882812 -13.835938 17.6875 -13.640625 L 17.6875 -13.46875 C 19.3125 -13.101562 20.484375 -12.421875 21.203125 -11.421875 C 21.929688 -10.429688 22.296875 -9.109375 22.296875 -7.453125 C 22.296875 -5.109375 21.445312 -3.28125 19.75 -1.96875 C 18.050781 -0.65625 15.75 0 12.84375 0 L 3.234375 0 Z M 8.6875 -15.515625 L 11.84375 -15.515625 C 13.320312 -15.515625 14.390625 -15.742188 15.046875 -16.203125 C 15.710938 -16.660156 16.046875 -17.414062 16.046875 -18.46875 C 16.046875 -19.457031 15.6875 -20.164062 14.96875 -20.59375 C 14.25 -21.019531 13.109375 -21.234375 11.546875 -21.234375 L 8.6875 -21.234375 Z M 8.6875 -11.203125 L 8.6875 -4.5 L 12.234375 -4.5 C 13.734375 -4.5 14.835938 -4.785156 15.546875 -5.359375 C 16.265625 -5.929688 16.625 -6.8125 16.625 -8 C 16.625 -10.132812 15.101562 -11.203125 12.0625 -11.203125 Z M 8.6875 -11.203125 "/></g></g></g><g fill="#000000" fill-opacity="1"><g transform="translate(795.330643, 592.534382)"><g><path d="M 7.078125 -9.859375 C 7.078125 -7.910156 7.394531 -6.4375 8.03125 -5.4375 C 8.675781 -4.445312 9.71875 -3.953125 11.15625 -3.953125 C 12.59375 -3.953125 13.625 -4.445312 14.25 -5.4375 C 14.875 -6.425781 15.1875 -7.898438 15.1875 -9.859375 C 15.1875 -11.804688 14.867188 -13.265625 14.234375 -14.234375 C 13.609375 -15.210938 12.570312 -15.703125 11.125 -15.703125 C 9.695312 -15.703125 8.664062 -15.21875 8.03125 -14.25 C 7.394531 -13.28125 7.078125 -11.816406 7.078125 -9.859375 Z M 20.671875 -9.859375 C 20.671875 -6.660156 19.828125 -4.15625 18.140625 -2.34375 C 16.453125 -0.539062 14.101562 0.359375 11.09375 0.359375 C 9.207031 0.359375 7.539062 -0.0507812 6.09375 -0.875 C 4.65625 -1.707031 3.550781 -2.894531 2.78125 -4.4375 C 2.007812 -5.988281 1.625 -7.796875 1.625 -9.859375 C 1.625 -13.066406 2.457031 -15.5625 4.125 -17.34375 C 5.800781 -19.125 8.160156 -20.015625 11.203125 -20.015625 C 13.085938 -20.015625 14.75 -19.601562 16.1875 -18.78125 C 17.632812 -17.96875 18.742188 -16.789062 19.515625 -15.25 C 20.285156 -13.71875 20.671875 -11.921875 20.671875 -9.859375 Z M 20.671875 -9.859375 "/></g></g></g><g fill="#000000" fill-opacity="1"><g transform="translate(817.612449, 592.534382)"><g><path d="M 9.03125 0.359375 C 6.726562 0.359375 4.914062 -0.535156 3.59375 -2.328125 C 2.28125 -4.128906 1.625 -6.617188 1.625 -9.796875 C 1.625 -13.015625 2.289062 -15.519531 3.625 -17.3125 C 4.96875 -19.113281 6.816406 -20.015625 9.171875 -20.015625 C 11.648438 -20.015625 13.539062 -19.054688 14.84375 -17.140625 L 15.015625 -17.140625 C 14.742188 -18.609375 14.609375 -19.914062 14.609375 -21.0625 L 14.609375 -27.359375 L 19.984375 -27.359375 L 19.984375 0 L 15.875 0 L 14.84375 -2.546875 L 14.609375 -2.546875 C 13.390625 -0.609375 11.53125 0.359375 9.03125 0.359375 Z M 10.921875 -3.921875 C 12.285156 -3.921875 13.285156 -4.316406 13.921875 -5.109375 C 14.566406 -5.910156 14.921875 -7.265625 14.984375 -9.171875 L 14.984375 -9.75 C 14.984375 -11.863281 14.65625 -13.375 14 -14.28125 C 13.351562 -15.195312 12.296875 -15.65625 10.828125 -15.65625 C 9.628906 -15.65625 8.695312 -15.148438 8.03125 -14.140625 C 7.375 -13.128906 7.046875 -11.65625 7.046875 -9.71875 C 7.046875 -7.789062 7.378906 -6.34375 8.046875 -5.375 C 8.710938 -4.40625 9.671875 -3.921875 10.921875 -3.921875 Z M 10.921875 -3.921875 "/></g></g></g><g fill="#000000" fill-opacity="1"><g transform="translate(840.386281, 592.534382)"><g><path d="M 0 -19.65625 L 5.875 -19.65625 L 9.578125 -8.59375 C 9.898438 -7.632812 10.117188 -6.5 10.234375 -5.1875 L 10.34375 -5.1875 C 10.46875 -6.394531 10.71875 -7.53125 11.09375 -8.59375 L 14.734375 -19.65625 L 20.484375 -19.65625 L 12.171875 2.515625 C 11.398438 4.566406 10.304688 6.101562 8.890625 7.125 C 7.484375 8.144531 5.835938 8.65625 3.953125 8.65625 C 3.023438 8.65625 2.117188 8.550781 1.234375 8.34375 L 1.234375 4.09375 C 1.878906 4.25 2.582031 4.328125 3.34375 4.328125 C 4.289062 4.328125 5.117188 4.035156 5.828125 3.453125 C 6.535156 2.867188 7.085938 1.992188 7.484375 0.828125 L 7.8125 -0.140625 Z M 0 -19.65625 "/></g></g></g><g fill="#000000" fill-opacity="1"><g transform="translate(757.229143, 683.505394)"><g><path d="M 8.59375 0 L 3.234375 0 L 3.234375 -25.703125 L 17.96875 -25.703125 L 17.96875 -21.234375 L 8.59375 -21.234375 L 8.59375 -14.609375 L 17.3125 -14.609375 L 17.3125 -10.15625 L 8.59375 -10.15625 Z M 8.59375 0 "/></g></g></g><g fill="#000000" fill-opacity="1"><g transform="translate(776.980523, 683.505394)"><g><path d="M 7.078125 -9.859375 C 7.078125 -7.910156 7.394531 -6.4375 8.03125 -5.4375 C 8.675781 -4.445312 9.71875 -3.953125 11.15625 -3.953125 C 12.59375 -3.953125 13.625 -4.445312 14.25 -5.4375 C 14.875 -6.425781 15.1875 -7.898438 15.1875 -9.859375 C 15.1875 -11.804688 14.867188 -13.265625 14.234375 -14.234375 C 13.609375 -15.210938 12.570312 -15.703125 11.125 -15.703125 C 9.695312 -15.703125 8.664062 -15.21875 8.03125 -14.25 C 7.394531 -13.28125 7.078125 -11.816406 7.078125 -9.859375 Z M 20.671875 -9.859375 C 20.671875 -6.660156 19.828125 -4.15625 18.140625 -2.34375 C 16.453125 -0.539062 14.101562 0.359375 11.09375 0.359375 C 9.207031 0.359375 7.539062 -0.0507812 6.09375 -0.875 C 4.65625 -1.707031 3.550781 -2.894531 2.78125 -4.4375 C 2.007812 -5.988281 1.625 -7.796875 1.625 -9.859375 C 1.625 -13.066406 2.457031 -15.5625 4.125 -17.34375 C 5.800781 -19.125 8.160156 -20.015625 11.203125 -20.015625 C 13.085938 -20.015625 14.75 -19.601562 16.1875 -18.78125 C 17.632812 -17.96875 18.742188 -16.789062 19.515625 -15.25 C 20.285156 -13.71875 20.671875 -11.921875 20.671875 -9.859375 Z M 20.671875 -9.859375 "/></g></g></g><g fill="#000000" fill-opacity="1"><g transform="translate(799.262329, 683.505394)"><g><path d="M 7.078125 -9.859375 C 7.078125 -7.910156 7.394531 -6.4375 8.03125 -5.4375 C 8.675781 -4.445312 9.71875 -3.953125 11.15625 -3.953125 C 12.59375 -3.953125 13.625 -4.445312 14.25 -5.4375 C 14.875 -6.425781 15.1875 -7.898438 15.1875 -9.859375 C 15.1875 -11.804688 14.867188 -13.265625 14.234375 -14.234375 C 13.609375 -15.210938 12.570312 -15.703125 11.125 -15.703125 C 9.695312 -15.703125 8.664062 -15.21875 8.03125 -14.25 C 7.394531 -13.28125 7.078125 -11.816406 7.078125 -9.859375 Z M 20.671875 -9.859375 C 20.671875 -6.660156 19.828125 -4.15625 18.140625 -2.34375 C 16.453125 -0.539062 14.101562 0.359375 11.09375 0.359375 C 9.207031 0.359375 7.539062 -0.0507812 6.09375 -0.875 C 4.65625 -1.707031 3.550781 -2.894531 2.78125 -4.4375 C 2.007812 -5.988281 1.625 -7.796875 1.625 -9.859375 C 1.625 -13.066406 2.457031 -15.5625 4.125 -17.34375 C 5.800781 -19.125 8.160156 -20.015625 11.203125 -20.015625 C 13.085938 -20.015625 14.75 -19.601562 16.1875 -18.78125 C 17.632812 -17.96875 18.742188 -16.789062 19.515625 -15.25 C 20.285156 -13.71875 20.671875 -11.921875 20.671875 -9.859375 Z M 20.671875 -9.859375 "/></g></g></g><g fill="#000000" fill-opacity="1"><g transform="translate(821.544135, 683.505394)"><g><path d="M 11.09375 -3.921875 C 12.03125 -3.921875 13.15625 -4.125 14.46875 -4.53125 L 14.46875 -0.546875 C 13.132812 0.0546875 11.492188 0.359375 9.546875 0.359375 C 7.398438 0.359375 5.835938 -0.179688 4.859375 -1.265625 C 3.878906 -2.359375 3.390625 -3.988281 3.390625 -6.15625 L 3.390625 -15.625 L 0.828125 -15.625 L 0.828125 -17.890625 L 3.78125 -19.6875 L 5.328125 -23.84375 L 8.75 -23.84375 L 8.75 -19.65625 L 14.25 -19.65625 L 14.25 -15.625 L 8.75 -15.625 L 8.75 -6.15625 C 8.75 -5.394531 8.960938 -4.832031 9.390625 -4.46875 C 9.816406 -4.101562 10.382812 -3.921875 11.09375 -3.921875 Z M 11.09375 -3.921875 "/></g></g></g><g fill="#000000" fill-opacity="1"><g transform="translate(837.166007, 683.505394)"><g><path d="M 10.953125 -16.203125 C 9.816406 -16.203125 8.925781 -15.84375 8.28125 -15.125 C 7.632812 -14.40625 7.265625 -13.382812 7.171875 -12.0625 L 14.703125 -12.0625 C 14.671875 -13.382812 14.320312 -14.40625 13.65625 -15.125 C 12.988281 -15.84375 12.085938 -16.203125 10.953125 -16.203125 Z M 11.703125 0.359375 C 8.546875 0.359375 6.078125 -0.515625 4.296875 -2.265625 C 2.515625 -4.015625 1.625 -6.488281 1.625 -9.6875 C 1.625 -12.976562 2.445312 -15.519531 4.09375 -17.3125 C 5.738281 -19.113281 8.015625 -20.015625 10.921875 -20.015625 C 13.691406 -20.015625 15.847656 -19.222656 17.390625 -17.640625 C 18.941406 -16.066406 19.71875 -13.882812 19.71875 -11.09375 L 19.71875 -8.484375 L 7.046875 -8.484375 C 7.109375 -6.960938 7.5625 -5.773438 8.40625 -4.921875 C 9.25 -4.066406 10.429688 -3.640625 11.953125 -3.640625 C 13.140625 -3.640625 14.257812 -3.757812 15.3125 -4 C 16.363281 -4.25 17.460938 -4.644531 18.609375 -5.1875 L 18.609375 -1.03125 C 17.671875 -0.5625 16.671875 -0.210938 15.609375 0.015625 C 14.546875 0.242188 13.242188 0.359375 11.703125 0.359375 Z M 11.703125 0.359375 "/></g></g></g><g fill="#000000" fill-opacity="1"><g transform="translate(858.428613, 683.505394)"><g><path d="M 13.78125 -20.015625 C 14.507812 -20.015625 15.113281 -19.960938 15.59375 -19.859375 L 15.1875 -14.84375 C 14.75 -14.957031 14.222656 -15.015625 13.609375 -15.015625 C 11.898438 -15.015625 10.566406 -14.570312 9.609375 -13.6875 C 8.648438 -12.8125 8.171875 -11.582031 8.171875 -10 L 8.171875 0 L 2.8125 0 L 2.8125 -19.65625 L 6.875 -19.65625 L 7.671875 -16.34375 L 7.921875 -16.34375 C 8.535156 -17.445312 9.359375 -18.332031 10.390625 -19 C 11.429688 -19.675781 12.5625 -20.015625 13.78125 -20.015625 Z M 13.78125 -20.015625 "/></g></g></g><g fill="#000000" fill-opacity="1"><g transform="translate(516.934728, 406.73874)"><g><path d="M 3.953125 -31.40625 L 13.734375 -31.40625 C 18.179688 -31.40625 21.410156 -30.769531 23.421875 -29.5 C 25.441406 -28.238281 26.453125 -26.226562 26.453125 -23.46875 C 26.453125 -21.582031 26.007812 -20.035156 25.125 -18.828125 C 24.25 -17.628906 23.078125 -16.910156 21.609375 -16.671875 L 21.609375 -16.453125 C 23.597656 -16.015625 25.035156 -15.1875 25.921875 -13.96875 C 26.804688 -12.75 27.25 -11.128906 27.25 -9.109375 C 27.25 -6.242188 26.210938 -4.007812 24.140625 -2.40625 C 22.066406 -0.800781 19.253906 0 15.703125 0 L 3.953125 0 Z M 10.609375 -18.96875 L 14.484375 -18.96875 C 16.285156 -18.96875 17.585938 -19.242188 18.390625 -19.796875 C 19.203125 -20.359375 19.609375 -21.285156 19.609375 -22.578125 C 19.609375 -23.785156 19.164062 -24.648438 18.28125 -25.171875 C 17.40625 -25.691406 16.015625 -25.953125 14.109375 -25.953125 L 10.609375 -25.953125 Z M 10.609375 -13.6875 L 10.609375 -5.5 L 14.953125 -5.5 C 16.785156 -5.5 18.140625 -5.847656 19.015625 -6.546875 C 19.890625 -7.253906 20.328125 -8.332031 20.328125 -9.78125 C 20.328125 -12.382812 18.460938 -13.6875 14.734375 -13.6875 Z M 10.609375 -13.6875 "/></g></g></g><g fill="#000000" fill-opacity="1"><g transform="translate(546.491978, 406.73874)"><g><path d="M 8.65625 -12.046875 C 8.65625 -9.671875 9.046875 -7.875 9.828125 -6.65625 C 10.609375 -5.4375 11.878906 -4.828125 13.640625 -4.828125 C 15.390625 -4.828125 16.644531 -5.429688 17.40625 -6.640625 C 18.175781 -7.859375 18.5625 -9.660156 18.5625 -12.046875 C 18.5625 -14.429688 18.175781 -16.21875 17.40625 -17.40625 C 16.632812 -18.59375 15.363281 -19.1875 13.59375 -19.1875 C 11.851562 -19.1875 10.59375 -18.59375 9.8125 -17.40625 C 9.039062 -16.226562 8.65625 -14.441406 8.65625 -12.046875 Z M 25.265625 -12.046875 C 25.265625 -8.140625 24.234375 -5.082031 22.171875 -2.875 C 20.109375 -0.664062 17.238281 0.4375 13.5625 0.4375 C 11.25 0.4375 9.210938 -0.0664062 7.453125 -1.078125 C 5.691406 -2.085938 4.335938 -3.535156 3.390625 -5.421875 C 2.453125 -7.316406 1.984375 -9.523438 1.984375 -12.046875 C 1.984375 -15.972656 3.003906 -19.023438 5.046875 -21.203125 C 7.097656 -23.378906 9.976562 -24.46875 13.6875 -24.46875 C 15.988281 -24.46875 18.019531 -23.96875 19.78125 -22.96875 C 21.550781 -21.96875 22.90625 -20.523438 23.84375 -18.640625 C 24.789062 -16.765625 25.265625 -14.566406 25.265625 -12.046875 Z M 25.265625 -12.046875 "/></g></g></g><g fill="#000000" fill-opacity="1"><g transform="translate(573.729327, 406.73874)"><g><path d="M 11.046875 0.4375 C 8.222656 0.4375 6.003906 -0.65625 4.390625 -2.84375 C 2.785156 -5.039062 1.984375 -8.082031 1.984375 -11.96875 C 1.984375 -15.90625 2.800781 -18.972656 4.4375 -21.171875 C 6.070312 -23.367188 8.332031 -24.46875 11.21875 -24.46875 C 14.238281 -24.46875 16.546875 -23.296875 18.140625 -20.953125 L 18.34375 -20.953125 C 18.019531 -22.742188 17.859375 -24.335938 17.859375 -25.734375 L 17.859375 -33.4375 L 24.421875 -33.4375 L 24.421875 0 L 19.40625 0 L 18.140625 -3.109375 L 17.859375 -3.109375 C 16.367188 -0.742188 14.097656 0.4375 11.046875 0.4375 Z M 13.34375 -4.796875 C 15.019531 -4.796875 16.25 -5.28125 17.03125 -6.25 C 17.8125 -7.226562 18.238281 -8.882812 18.3125 -11.21875 L 18.3125 -11.921875 C 18.3125 -14.503906 17.910156 -16.351562 17.109375 -17.46875 C 16.316406 -18.582031 15.023438 -19.140625 13.234375 -19.140625 C 11.773438 -19.140625 10.640625 -18.519531 9.828125 -17.28125 C 9.015625 -16.039062 8.609375 -14.238281 8.609375 -11.875 C 8.609375 -9.519531 9.015625 -7.75 9.828125 -6.5625 C 10.648438 -5.382812 11.820312 -4.796875 13.34375 -4.796875 Z M 13.34375 -4.796875 "/></g></g></g><g fill="#000000" fill-opacity="1"><g transform="translate(601.568131, 406.73874)"><g><path d="M 0 -24.015625 L 7.171875 -24.015625 L 11.703125 -10.5 C 12.097656 -9.332031 12.363281 -7.945312 12.5 -6.34375 L 12.640625 -6.34375 C 12.796875 -7.8125 13.101562 -9.195312 13.5625 -10.5 L 18 -24.015625 L 25.03125 -24.015625 L 14.875 3.078125 C 13.9375 5.578125 12.601562 7.453125 10.875 8.703125 C 9.15625 9.953125 7.140625 10.578125 4.828125 10.578125 C 3.703125 10.578125 2.59375 10.453125 1.5 10.203125 L 1.5 5 C 2.289062 5.1875 3.148438 5.28125 4.078125 5.28125 C 5.242188 5.28125 6.257812 4.925781 7.125 4.21875 C 7.988281 3.507812 8.664062 2.441406 9.15625 1.015625 L 9.546875 -0.171875 Z M 0 -24.015625 "/></g></g></g><path stroke-linecap="butt" transform="matrix(0.000000000000000229, -3.742331, 3.75, 0.00000000000000023, 993.915076, 557.13268)" fill="none" stroke-linejoin="miter" d="M -0.0000354134 -0.000270325 L 36.67601 -0.000270325 " stroke="#000000" stroke-width="1" stroke-opacity="1" stroke-miterlimit="4"/><path stroke-linecap="butt" transform="matrix(3.732057, -0.000000000000005413, 0.000000000000005439, 3.75, 993.916708, 421.474679)" fill="none" stroke-linejoin="miter" d="M 0.000337758 0.000502321 L 15.675338 0.000502321 " stroke="#000000" stroke-width="1" stroke-opacity="1" stroke-miterlimit="4"/><g clip-path="url(#id8)"><path fill="#d9d9d9" d="M 1017.179688 389.488281 L 1149.15625 389.488281 L 1149.15625 449.488281 L 1017.179688 449.488281 L 1017.179688 389.488281 " fill-opacity="1" fill-rule="nonzero"/></g><path stroke-linecap="butt" transform="matrix(3.732057, -0.000000000000005413, 0.000000000000005439, 3.75, 990.166708, 552.443008)" fill="none" stroke-linejoin="miter" d="M 0.000337707 -0.000427189 L 15.675338 -0.000427189 " stroke="#000000" stroke-width="1" stroke-opacity="1" stroke-miterlimit="4"/><g clip-path="url(#id9)"><path fill="#d9d9d9" d="M 1017.179688 522.332031 L 1149.15625 522.332031 L 1149.15625 582.332031 L 1017.179688 582.332031 L 1017.179688 522.332031 " fill-opacity="1" fill-rule="nonzero"/></g><g fill="#000000" fill-opacity="1"><g transform="translate(1059.084674, 428.705624)"><g><path d="M 18.625 0 L 13.859375 0 L 13.859375 -10.203125 C 13.859375 -12.722656 12.921875 -13.984375 11.046875 -13.984375 C 9.710938 -13.984375 8.75 -13.53125 8.15625 -12.625 C 7.5625 -11.71875 7.265625 -10.25 7.265625 -8.21875 L 7.265625 0 L 2.5 0 L 2.5 -24.3125 L 7.265625 -24.3125 L 7.265625 -19.359375 C 7.265625 -18.972656 7.226562 -18.066406 7.15625 -16.640625 L 7.046875 -15.234375 L 7.296875 -15.234375 C 8.359375 -16.941406 10.046875 -17.796875 12.359375 -17.796875 C 14.410156 -17.796875 15.96875 -17.242188 17.03125 -16.140625 C 18.09375 -15.035156 18.625 -13.453125 18.625 -11.390625 Z M 18.625 0 "/></g></g></g><g fill="#000000" fill-opacity="1"><g transform="translate(1080.110788, 428.705624)"><g><path d="M 13.21875 0 L 8.390625 0 L 8.390625 -13.21875 L 8.4375 -15.390625 L 8.515625 -17.765625 C 7.710938 -16.960938 7.15625 -16.4375 6.84375 -16.1875 L 4.21875 -14.078125 L 1.890625 -16.984375 L 9.25 -22.84375 L 13.21875 -22.84375 Z M 13.21875 0 "/></g></g></g><g fill="#000000" fill-opacity="1"><g transform="translate(1069.069048, 566.693007)"><g><path d="M 13.59375 0 L 12.671875 -2.375 L 12.546875 -2.375 C 11.742188 -1.363281 10.914062 -0.660156 10.0625 -0.265625 C 9.21875 0.117188 8.113281 0.3125 6.75 0.3125 C 5.070312 0.3125 3.75 -0.164062 2.78125 -1.125 C 1.820312 -2.082031 1.34375 -3.445312 1.34375 -5.21875 C 1.34375 -7.070312 1.988281 -8.4375 3.28125 -9.3125 C 4.582031 -10.195312 6.539062 -10.6875 9.15625 -10.78125 L 12.1875 -10.875 L 12.1875 -11.640625 C 12.1875 -13.410156 11.28125 -14.296875 9.46875 -14.296875 C 8.070312 -14.296875 6.429688 -13.875 4.546875 -13.03125 L 2.96875 -16.25 C 4.976562 -17.300781 7.207031 -17.828125 9.65625 -17.828125 C 12 -17.828125 13.796875 -17.316406 15.046875 -16.296875 C 16.296875 -15.273438 16.921875 -13.722656 16.921875 -11.640625 L 16.921875 0 Z M 12.1875 -8.09375 L 10.34375 -8.03125 C 8.957031 -7.988281 7.925781 -7.738281 7.25 -7.28125 C 6.570312 -6.820312 6.234375 -6.125 6.234375 -5.1875 C 6.234375 -3.84375 7.003906 -3.171875 8.546875 -3.171875 C 9.648438 -3.171875 10.53125 -3.488281 11.1875 -4.125 C 11.851562 -4.757812 12.1875 -5.601562 12.1875 -6.65625 Z M 12.1875 -8.09375 "/></g></g></g><g fill="#000000" fill-opacity="1"><g transform="translate(590.372311, 75.52144)"><g><path d="M 47.8125 -26.046875 C 47.8125 -17.703125 45.515625 -11.273438 40.921875 -6.765625 C 36.335938 -2.253906 29.882812 0 21.5625 0 L 5.40625 0 L 5.40625 -49.96875 L 22.703125 -49.96875 C 30.722656 -49.96875 36.910156 -47.914062 41.265625 -43.8125 C 45.628906 -39.71875 47.8125 -33.796875 47.8125 -26.046875 Z M 33.796875 -25.5625 C 33.796875 -30.144531 32.890625 -33.539062 31.078125 -35.75 C 29.273438 -37.957031 26.523438 -39.0625 22.828125 -39.0625 L 18.90625 -39.0625 L 18.90625 -11.078125 L 21.90625 -11.078125 C 26.007812 -11.078125 29.015625 -12.265625 30.921875 -14.640625 C 32.835938 -17.023438 33.796875 -20.664062 33.796875 -25.5625 Z M 33.796875 -25.5625 "/></g></g></g><g fill="#000000" fill-opacity="1"><g transform="translate(641.741518, 75.52144)"><g><path d="M 52.15625 -25.046875 C 52.15625 -16.640625 50.09375 -10.25 45.96875 -5.875 C 41.84375 -1.5 35.804688 0.6875 27.859375 0.6875 C 20.015625 0.6875 14.003906 -1.507812 9.828125 -5.90625 C 5.648438 -10.3125 3.5625 -16.71875 3.5625 -25.125 C 3.5625 -33.4375 5.640625 -39.785156 9.796875 -44.171875 C 13.953125 -48.554688 19.992188 -50.75 27.921875 -50.75 C 35.878906 -50.75 41.90625 -48.570312 46 -44.21875 C 50.101562 -39.875 52.15625 -33.484375 52.15625 -25.046875 Z M 17.78125 -25.046875 C 17.78125 -15.390625 21.140625 -10.5625 27.859375 -10.5625 C 31.273438 -10.5625 33.804688 -11.734375 35.453125 -14.078125 C 37.109375 -16.429688 37.9375 -20.085938 37.9375 -25.046875 C 37.9375 -30.046875 37.097656 -33.734375 35.421875 -36.109375 C 33.753906 -38.492188 31.253906 -39.6875 27.921875 -39.6875 C 21.160156 -39.6875 17.78125 -34.804688 17.78125 -25.046875 Z M 17.78125 -25.046875 "/></g></g></g><g fill="#000000" fill-opacity="1"><g transform="translate(697.519653, 75.52144)"><g><path d="M 27.171875 0 L 16.953125 -35.984375 L 16.640625 -35.984375 C 17.117188 -29.859375 17.359375 -25.097656 17.359375 -21.703125 L 17.359375 0 L 5.40625 0 L 5.40625 -49.96875 L 23.375 -49.96875 L 33.796875 -14.5 L 34.078125 -14.5 L 44.296875 -49.96875 L 62.3125 -49.96875 L 62.3125 0 L 49.90625 0 L 49.90625 -21.90625 C 49.90625 -23.050781 49.921875 -24.316406 49.953125 -25.703125 C 49.984375 -27.085938 50.140625 -30.492188 50.421875 -35.921875 L 50.109375 -35.921875 L 40.03125 0 Z M 27.171875 0 "/></g></g></g></svg>